# This file uses centimeters as units for non-parametric coordinates.

mtllib Liane.mtl
g default
v -0.799026 1.201930 0.223587
v -0.799026 1.324152 0.223587
v -0.799026 1.446374 0.223587
v -0.799026 1.568597 0.223587
v -0.799026 1.690819 0.223587
v -0.799026 1.813041 0.223587
v -0.799026 1.935263 0.223587
v -0.799026 2.057485 0.223587
v -0.799026 2.179708 0.223587
v -0.799026 2.301930 0.223587
v -0.799026 2.424152 0.223587
v -0.700762 1.324152 0.223587
v -0.700762 1.446374 0.223587
v -0.700762 1.568597 0.223587
v -0.700762 1.690819 0.223587
v -0.700762 1.813041 0.223587
v -0.700762 1.935263 0.223587
v -0.700762 2.057485 0.223587
v -0.700762 2.179708 0.223587
v -0.700762 2.301930 0.223587
v -0.700762 2.424152 0.223587
v -0.914424 1.324152 0.223587
v -0.914424 1.446374 0.223587
v -0.914424 1.568597 0.223587
v -0.914424 1.690819 0.223587
v -0.914424 1.813041 0.223587
v -0.914424 1.935263 0.223587
v -0.914424 2.057485 0.223587
v -0.914424 2.179708 0.223587
v -0.914424 2.301930 0.223587
v -0.914424 2.424152 0.223587
vt 0.500000 0.000000
vt 0.500000 0.100000
vt 0.500000 0.200000
vt 0.500000 0.300000
vt 0.500000 0.400000
vt 0.500000 0.500000
vt 0.500000 0.600000
vt 0.500000 0.700000
vt 0.500000 0.800000
vt 0.500000 0.900000
vt 0.500000 1.000000
vt 0.620692 0.100000
vt 0.620692 0.200000
vt 0.620692 0.300000
vt 0.620692 0.400000
vt 0.620692 0.500000
vt 0.620692 0.600000
vt 0.620692 0.700000
vt 0.620692 0.800000
vt 0.620692 0.900000
vt 0.620692 1.000000
vt 0.358263 0.100000
vt 0.358263 0.200000
vt 0.358263 0.300000
vt 0.358263 0.400000
vt 0.358263 0.500000
vt 0.358263 0.600000
vt 0.358263 0.700000
vt 0.358263 0.800000
vt 0.358263 0.900000
vt 0.358263 1.000000
vn 0.000000 0.000000 1.000000
vn 0.000000 0.000000 1.000000
vn 0.000000 0.000000 1.000000
vn 0.000000 0.000000 1.000000
vn 0.000000 0.000000 1.000000
vn 0.000000 0.000000 1.000000
vn 0.000000 0.000000 1.000000
vn 0.000000 0.000000 1.000000
vn 0.000000 0.000000 1.000000
vn 0.000000 -0.000000 1.000000
vn 0.000000 -0.000000 1.000000
vn 0.000000 -0.000000 1.000000
vn 0.000000 -0.000000 1.000000
vn 0.000000 0.000000 1.000000
vn 0.000000 0.000000 1.000000
vn 0.000000 0.000000 1.000000
vn 0.000000 0.000000 1.000000
vn 0.000000 0.000000 1.000000
vn 0.000000 0.000000 1.000000
vn 0.000000 0.000000 1.000000
vn 0.000000 0.000000 1.000000
vn 0.000000 0.000000 1.000000
vn 0.000000 0.000000 1.000000
vn 0.000000 0.000000 1.000000
vn 0.000000 0.000000 1.000000
vn 0.000000 -0.000000 1.000000
vn 0.000000 -0.000000 1.000000
vn 0.000000 0.000000 1.000000
vn 0.000000 0.000000 1.000000
vn 0.000000 0.000000 1.000000
vn 0.000000 0.000000 1.000000
s 1
g pPlane42
usemtl lambert7SG
f 1/1/1 12/12/2 2/2/3
f 2/2/3 12/12/2 13/13/4 3/3/5
f 3/3/5 13/13/4 14/14/6 4/4/7
f 4/4/7 14/14/6 15/15/8 5/5/9
f 5/5/9 15/15/8 16/16/10 6/6/11
f 6/6/11 16/16/10 17/17/12 7/7/13
f 7/7/13 17/17/12 18/18/14 8/8/15
f 8/8/15 18/18/14 19/19/16 9/9/17
f 9/9/17 19/19/16 20/20/18 10/10/19
f 10/10/19 20/20/18 21/21/20 11/11/21
f 22/22/22 1/1/1 2/2/3
f 23/23/23 22/22/22 2/2/3 3/3/5
f 24/24/24 23/23/23 3/3/5 4/4/7
f 25/25/25 24/24/24 4/4/7 5/5/9
f 26/26/26 25/25/25 5/5/9 6/6/11
f 27/27/27 26/26/26 6/6/11 7/7/13
f 28/28/28 27/27/27 7/7/13 8/8/15
f 29/29/29 28/28/28 8/8/15 9/9/17
f 30/30/30 29/29/29 9/9/17 10/10/19
f 31/31/31 30/30/30 10/10/19 11/11/21
